<?xml version="1.0" standalone="no"?>
<!DOCTYPE svg PUBLIC "-//W3C//DTD SVG 20010904//EN"
 "http://www.w3.org/TR/2001/REC-SVG-20010904/DTD/svg10.dtd">
<svg version="1.0" xmlns="http://www.w3.org/2000/svg"
 width="520.000000pt" height="520.000000pt" viewBox="0 0 520.000000 520.000000"
 preserveAspectRatio="xMidYMid meet">
<metadata>
Created by potrace 1.11, written by Peter Selinger 2001-2013
</metadata>
<g transform="translate(0.000000,520.000000) scale(0.100000,-0.100000)"
fill="#000000" stroke="none">
<path d="M2659 3535 c-3 -2 -16 -6 -30 -8 -45 -8 -122 -54 -167 -98 -50 -49
-106 -160 -121 -239 -10 -52 -8 -270 2 -316 5 -18 -9 -27 -96 -69 -132 -62
-209 -114 -279 -187 -143 -150 -177 -354 -87 -529 39 -77 133 -149 234 -181
70 -22 246 -19 330 6 6 2 24 6 40 11 17 4 70 26 118 48 l88 40 27 -25 c37 -35
100 -72 142 -84 93 -27 218 -10 308 42 61 36 151 126 197 198 35 55 36 58 18
72 -19 14 -53 28 -57 22 -13 -19 -96 -117 -111 -131 -35 -31 -75 -48 -125 -54
-57 -7 -97 6 -153 50 -63 48 -63 58 -9 114 61 62 105 118 213 273 93 133 140
170 264 207 26 7 31 14 36 51 l5 42 -278 -2 c-153 -2 -278 -5 -278 -8 -1 -3
-5 -21 -9 -41 l-8 -37 51 -6 c57 -6 94 -29 114 -70 28 -57 -32 -174 -158 -309
l-67 -72 -35 55 c-36 57 -91 181 -126 285 -40 116 -72 239 -64 246 4 3 49 20
100 37 172 57 292 144 343 248 33 68 34 199 2 260 -54 102 -147 155 -283 160
-48 2 -89 2 -91 -1z m171 -125 c122 -87 98 -260 -50 -372 -51 -38 -108 -68
-167 -89 -49 -17 -53 -17 -54 -1 -1 9 -4 33 -7 52 -3 19 -5 87 -6 150 0 98 3
122 23 166 25 58 61 96 106 113 42 15 120 6 155 -19z m-451 -717 c36 -158 138
-416 211 -534 16 -27 30 -51 30 -53 0 -11 -88 -58 -142 -77 -113 -38 -241 -10
-306 66 -128 152 -114 399 31 547 38 38 138 107 157 108 3 0 11 -26 19 -57z"/>
<path d="M4339 3535 c-2 -2 -21 -6 -42 -9 -129 -20 -289 -144 -347 -269 -37
-78 -40 -91 -46 -187 -4 -84 13 -159 52 -226 57 -97 119 -138 366 -243 276
-118 285 -124 325 -206 54 -111 5 -268 -106 -343 -69 -47 -126 -64 -227 -68
-109 -4 -186 14 -258 60 -134 86 -206 232 -206 417 0 67 -1 69 -27 75 -16 3
-33 7 -40 9 -7 2 -14 1 -17 -3 -4 -6 -44 -212 -72 -362 -2 -14 -9 -47 -14 -75
-11 -55 -17 -91 -26 -147 -7 -38 -7 -38 29 -38 30 0 44 9 94 61 32 33 59 64
61 69 2 5 27 -8 55 -30 157 -118 389 -160 591 -105 171 45 309 163 367 313 18
45 23 78 23 162 1 159 -33 239 -137 321 -63 50 -122 80 -299 153 -181 74 -215
92 -270 147 -138 138 -51 366 163 424 225 61 427 -76 466 -315 3 -19 7 -42 8
-50 2 -8 4 -43 4 -76 l1 -61 42 -6 c24 -3 44 -4 45 -3 3 3 58 260 69 321 3 17
16 78 28 138 13 59 21 107 17 108 -58 10 -75 4 -134 -52 l-62 -57 -38 33 c-51
44 -140 90 -207 107 -48 13 -222 23 -231 13z"/>
<path d="M392 3478 c-1 -18 -5 -41 -8 -50 -3 -10 -2 -18 3 -19 4 0 48 -2 96
-4 107 -4 132 -19 123 -75 -13 -75 -18 -99 -50 -220 -19 -69 -55 -206 -81
-305 -53 -206 -123 -469 -167 -632 -28 -105 -32 -113 -63 -128 -19 -8 -64 -17
-102 -19 l-68 -3 -5 -51 -6 -52 343 0 343 0 2 30 c4 79 12 72 -84 76 -92 3
-123 13 -133 43 -4 14 53 259 92 392 5 15 24 39 43 55 19 16 37 31 40 34 3 3
32 28 65 55 33 28 69 58 79 68 20 17 21 17 34 -8 50 -97 272 -589 272 -604 0
-26 -27 -33 -128 -36 -45 -1 -84 -4 -86 -6 -3 -2 -6 -24 -7 -49 l-4 -45 351
-3 c392 -3 361 -8 360 67 l-1 34 -88 3 c-69 1 -92 6 -109 20 -18 16 -85 147
-213 419 -13 28 -55 116 -93 197 -39 80 -73 155 -76 165 -5 15 6 31 46 65 351
302 461 394 506 424 61 41 141 72 221 85 29 4 55 10 56 11 2 2 5 23 6 48 l4
45 -320 3 c-248 2 -320 -1 -327 -10 -4 -7 -8 -31 -8 -53 l0 -40 53 -1 c77 -1
106 -11 113 -38 11 -46 -34 -101 -191 -231 -38 -33 -75 -64 -81 -69 -6 -6 -30
-27 -54 -46 -23 -19 -52 -43 -64 -53 -11 -10 -43 -37 -70 -60 -27 -23 -54 -47
-60 -52 -72 -66 -206 -173 -206 -163 0 6 25 109 56 227 125 481 119 464 176
477 17 3 55 7 85 9 29 1 55 4 57 6 2 2 7 25 10 52 l7 47 -343 0 -344 0 -2 -32z"/>
</g>
</svg>
